<svg width="0" height="0" class="hidden">
  <symbol xmlns="http://www.w3.org/2000/svg" viewBox="0 0 100 125" id="noun_activate_2207879">
    <path d="M38.4 41.2c-.8.1-1.5.4-2 1l-7.5 8.9-3.4-4c-1-1.2-2.9-1.4-4.2-.4-1.2 1.2-1.3 3.1-.3 4.3l5.6 6.7c.6.7 1.4 1.1 2.3 1.1.9 0 1.7-.4 2.3-1.1L41 46.1c.5-.6.8-1.4.7-2.2-.1-.8-.4-1.5-1-2-.7-.5-1.5-.7-2.3-.7z"></path>
    <path d="M74.2 26.7H25.8C13 26.7 2.5 37.1 2.5 50S13 73.3 25.8 73.3h48.4C87 73.3 97.5 62.9 97.5 50S87 26.7 74.2 26.7zM25.8 67.1c-9.4 0-17.1-7.7-17.1-17.1 0-9.4 7.7-17.1 17.1-17.1h32.5c-4.6 4.3-7.5 10.3-7.5 17.1 0 6.7 2.9 12.8 7.5 17.1H25.8zm48.4 0c-9.4 0-17.1-7.7-17.1-17.1 0-9.4 7.7-17.1 17.1-17.1s17 7.7 17 17.1c0 9.4-7.6 17.1-17 17.1z"></path>
  </symbol>
  <symbol xmlns="http://www.w3.org/2000/svg" viewBox="0 0 100 125" id="noun_Arrow_2206772">
    <path d="M20.655 51.907l14 17c1.158 1.296 3.016 1.42 4.235.422 1.219-.998 1.42-3.016.421-4.235L29.342 53H77a3 3 0 1 0 0-6H29.342l9.97-12.094c.998-1.218.773-3.208-.422-4.234-1.233-1.059-3.237-.797-4.235.422l-14 17c-.912 1.282-.834 2.573 0 3.813z" overflow="visible"
      color="#000"></path>
  </symbol>
  <symbol xmlns="http://www.w3.org/2000/svg" viewBox="0 0 100 125" id="noun_Check_1896652">
    <path d="M50 2.5C23.8 2.5 2.5 23.8 2.5 50S23.8 97.5 50 97.5 97.5 76.2 97.5 50 76.2 2.5 50 2.5zM69.4 43L49.6 65.6c-1 1.1-2.4 1.8-3.9 1.8h-.2c-1.4 0-2.8-.6-3.8-1.6L29.4 53.6c-2.1-2.1-2.1-5.6 0-7.7 2.1-2.1 5.6-2.1 7.7 0l8.1 8.1 16.1-18.3c2-2.3 5.4-2.5 7.7-.5 2.2 2.1 2.4 5.5.4 7.8z"></path>
  </symbol>
  <symbol xmlns="http://www.w3.org/2000/svg" viewBox="0 0 100 125" id="noun_Cross_1707162">
    <path d="M31.615 31.615a3 3 0 0 1 4.243 0L50 45.757l14.142-14.142a3 3 0 1 1 4.243 4.243L54.243 50l14.142 14.142a3 3 0 0 1-4.243 4.243L50 54.243 35.858 68.385a3 3 0 0 1-4.243-4.243L45.757 50 31.615 35.858a3 3 0 0 1 0-4.243z" overflow="visible" color="#000"></path>
  </symbol>
  <symbol xmlns="http://www.w3.org/2000/svg" viewBox="0 0 100 125" id="noun_deactivate_2207874">
    <path d="M74.2 26.7H25.8C13 26.7 2.5 37.1 2.5 50S13 73.3 25.8 73.3h48.4C87 73.3 97.5 62.9 97.5 50S87 26.7 74.2 26.7zM25.8 67.1c-9.4 0-17.1-7.7-17.1-17.1s7.7-17.1 17.1-17.1c9.4 0 17.1 7.7 17.1 17.1s-7.7 17.1-17.1 17.1zm48.4 0H41.6c4.6-4.3 7.5-10.3 7.5-17.1s-2.9-12.8-7.5-17.1h32.5c9.4 0 17.1 7.7 17.1 17.1s-7.6 17.1-17 17.1z"></path>
    <path d="M78.3 41c-1.1-1.1-3.1-1.1-4.2 0l-4.8 4.8-4.7-4.8c-1.1-1.1-3.1-1.1-4.2 0-1.2 1.2-1.2 3 0 4.2l4.8 4.8-4.8 4.8c-1.2 1.2-1.2 3 0 4.2.6.6 1.3.9 2.1.9s1.5-.3 2.1-.9l4.8-4.8 4.8 4.8c.6.6 1.3.9 2.1.9s1.5-.3 2.1-.9c1.2-1.2 1.2-3 0-4.2L73.6 50l4.8-4.8c1.1-1.1 1.1-3-.1-4.2z"></path>
  </symbol>
  <symbol xmlns="http://www.w3.org/2000/svg" viewBox="0 0 21 26.25" id="noun_discover_1666932">
    <title>explore</title>
    <path d="M10.5 20a9.5 9.5 0 1 0 0-19 9.5 9.5 0 0 0 0 19zm0 1C4.701 21 0 16.299 0 10.5S4.701 0 10.5 0 21 4.701 21 10.5 16.299 21 10.5 21zM9.45 9.458l4.444-2.351-2.35 4.439-4.44 2.35 2.347-4.438zm4.525-3.525L8.71 8.718l-2.78 5.259c-.491.928.169 1.582 1.093 1.093l5.26-2.784 2.784-5.26c.492-.928-.169-1.583-1.093-1.093z"></path>
  </symbol>
  <symbol xmlns="http://www.w3.org/2000/svg" viewBox="0 0 100 125" id="noun_filters_1245150">
    <path d="M36 20.1c-4 0-7.4 2.7-8.5 6.4h-9.1C17 26.5 16 27.6 16 29s1.1 2.5 2.5 2.5h9.1c1 3.7 4.5 6.4 8.5 6.4 4.1 0 7.5-2.7 8.6-6.4h36.9c1.4 0 2.5-1.1 2.5-2.5s-1.1-2.5-2.5-2.5H44.7c-1.2-3.7-4.6-6.4-8.7-6.4zm.1 5c2.1 0 3.9 1.7 3.9 3.9s-1.8 3.9-3.9 3.9-3.9-1.7-3.9-3.9 1.8-3.9 3.9-3.9zm30 15c-4 0-7.4 2.7-8.5 6.4H18.5C17 46.5 16 47.6 16 49s1.1 2.5 2.5 2.5h39.1c1 3.7 4.5 6.4 8.5 6.4 4.1 0 7.5-2.7 8.6-6.4h6.9c1.4 0 2.5-1.1 2.5-2.5s-1.1-2.5-2.5-2.5h-6.9a8.94 8.94 0 0 0-8.6-6.4zm.1 5c2.1 0 3.9 1.7 3.9 3.9s-1.8 3.9-3.9 3.9c-2.1 0-3.9-1.7-3.9-3.9s1.7-3.9 3.9-3.9zM48 62.1c-4 0-7.4 2.7-8.5 6.4h-21C17 68.5 16 69.6 16 71s1.1 2.5 2.5 2.5h21.1c1 3.7 4.5 6.4 8.5 6.4 4.1 0 7.5-2.7 8.6-6.4h24.9c1.4 0 2.5-1.1 2.5-2.5s-1.1-2.5-2.5-2.5h-25a8.94 8.94 0 0 0-8.6-6.4zm.1 5c2.1 0 3.9 1.7 3.9 3.9s-1.8 3.9-3.9 3.9-3.9-1.7-3.9-3.9c.1-2.2 1.8-3.9 3.9-3.9z"></path>
  </symbol>
  <symbol xmlns="http://www.w3.org/2000/svg" viewBox="0 0 32 40" id="noun_Folder_561033">
    <path d="M30 32H3c-.55 0-1-.45-1-1s.45-1 1-1h27V8H6v17c0 1.21-.8 3-3 3s-3-1.79-3-3V2c0-.97.7-2 2-2h6c.27 0 .52.11.71.29L10.41 2H26c.55 0 1 .45 1 1s-.45 1-1 1H10c-.27 0-.52-.11-.71-.29L7.59 2H2v23c.01.45.19 1 1 1s.99-.55 1-1.01V8c0-1.3 1.03-2 2-2h24c1.3 0 2 1.03 2 2v22c0 1.3-1.03 2-2 2z"></path>
  </symbol>
  <symbol xmlns="http://www.w3.org/2000/svg" viewBox="0 0 100 125" id="noun_Home_671857">
    <path d="M48.188 5.594l-40 30A3.05 3.05 0 0 0 7 38v54c0 1.57 1.43 3 3 3h80c1.57 0 3-1.43 3-3V38c0-.927-.449-1.846-1.187-2.406l-40-30c-1.31-.832-2.444-.751-3.625 0zM50 11.75L87 39.5V89H13V39.5z" overflow="visible" color="#000"></path>
  </symbol>
  <symbol xmlns="http://www.w3.org/2000/svg" viewBox="0 0 100 125" id="noun_Map_677577">
    <path d="M35.812 10.018a2 2 0 0 0-.593.156l-28 12A2 2 0 0 0 6 24.018v64a2 2 0 0 0 2.781 1.813L36 78.174l27.219 11.657a2 2 0 0 0 1.562 0l28-12A2 2 0 0 0 94 76.018v-64a2 2 0 0 0-2.781-1.844L64 21.831 36.781 10.174a2 2 0 0 0-.969-.156zm-1.812 5v59.688l-24 10.28V25.3l24-10.28zm4 0L62 25.3v59.688L38 74.706V15.018zm52 0v59.688l-24 10.28V25.3l24-10.28z"
      overflow="visible" color="#000"></path>
  </symbol>
  <symbol xmlns="http://www.w3.org/2000/svg" viewBox="0 0 100 125" id="noun_notification_2184960">
    <title>Bell v2.6</title>
    <path d="M45.5 29.067C37.736 31.064 32 38.109 32 46.499v12a2.002 2.002 0 0 1-1.998 2.001 4.004 4.004 0 0 0-4.002 4c0 2.21 1.794 4 4.01 4h39.98a4.008 4.008 0 0 0 4.01-4c0-2.21-1.8-4-4.002-4A1.995 1.995 0 0 1 68 58.498V46.5c0-8.387-5.735-15.434-13.5-17.432V27a4.497 4.497 0 0 0-4.5-4.501c-2.48 0-4.5 2.015-4.5 4.5v2.067zM43 70.5h14a7 7 0 0 1-14 0z"
      fill-rule="evenodd"></path>
  </symbol>
  <symbol xmlns="http://www.w3.org/2000/svg" viewBox="0 0 100 125" id="noun_setting_655357">
    <path d="M41.984 6c-1.087.03-1.734.871-1.968 1.625l-1.72 9.469a34.791 34.791 0 0 0-10.312 5.812l-8.968-3.469c-.858-.325-1.922.035-2.407.813L8.266 33.906c-.482.79-.315 1.915.375 2.532l7.156 6.343c-.49 2.328-.813 4.745-.813 7.219s.323 4.86.813 7.188L8.64 63.53c-.69.617-.857 1.741-.375 2.532l8.343 13.656c.485.778 1.549 1.137 2.407.812l8.968-3.468a34.853 34.853 0 0 0 10.313 5.812l1.719 9.469c.16.917 1.037 1.655 1.968 1.656h16c.932 0 1.809-.739 1.97-1.656l1.718-9.438a34.872 34.872 0 0 0 10.344-5.812l8.937 3.437c.865.342 1.95-.02 2.438-.812l8.343-13.656c.482-.791.315-1.915-.375-2.532l-7.125-6.375a35.17 35.17 0 0 0 .75-7.156 35.41 35.41 0 0 0-.75-7.187l7.125-6.375c.69-.617.857-1.741.375-2.532L83.391 20.25c-.488-.792-1.573-1.154-2.438-.813l-8.937 3.438c-3.06-2.49-6.547-4.43-10.344-5.781l-1.719-9.469C59.78 6.719 58.907 5.998 57.984 6h-16zm1.657 4h12.687l1.594 8.844a2.044 2.044 0 0 0 1.375 1.562c4.136 1.3 7.9 3.456 11.094 6.25a2.04 2.04 0 0 0 2.03.344l8.438-3.25 6.594 10.844-6.719 6a2.044 2.044 0 0 0-.625 1.969c.583 2.37.875 4.867.875 7.437 0 2.57-.292 5.036-.875 7.406a2.044 2.044 0 0 0 .625 1.969l6.72 6-6.595 10.844-8.437-3.25a2.043 2.043 0 0 0-2.031.344c-3.194 2.794-6.958 4.98-11.094 6.28a2.043 2.043 0 0 0-1.375 1.532L56.297 90H43.672l-1.625-8.875a2.043 2.043 0 0 0-1.344-1.531c-4.136-1.3-7.9-3.487-11.094-6.281a2.045 2.045 0 0 0-2.062-.344l-8.406 3.25-6.594-10.813 6.75-6a2.043 2.043 0 0 0 .625-1.968c-.59-2.392-.938-4.867-.938-7.438 0-2.571.347-5.077.938-7.469a2.044 2.044 0 0 0-.625-1.968l-6.75-6L19.14 23.75 27.547 27c.68.275 1.509.137 2.062-.344a30.956 30.956 0 0 1 11.094-6.25 2.043 2.043 0 0 0 1.344-1.562L43.64 10zm6.343 18c-12.126 0-22 9.873-22 22s9.874 22 22 22c12.127 0 22-9.873 22-22s-9.873-22-22-22zm0 4c9.965 0 18 8.035 18 18s-8.035 18-18 18c-9.964 0-18-8.035-18-18s8.036-18 18-18z"
      overflow="visible" color="#000"></path>
  </symbol>
  <symbol xmlns="http://www.w3.org/2000/svg" version="1.2" baseProfile="tiny" viewBox="0 0 100 125" id="noun_toggle_625259">
    <path d="M70 25H30C16.215 25 5 36.215 5 50s11.215 25 25 25h40c13.785 0 25-11.215 25-25S83.785 25 70 25zm0 45H30c-11.028 0-20-8.972-20-20s8.972-20 20-20h40c11.028 0 20 8.972 20 20s-8.972 20-20 20z"></path>
    <path d="M30 35c-8.271 0-15 6.729-15 15s6.729 15 15 15 15-6.729 15-15-6.729-15-15-15zm0 25c-5.514 0-10-4.486-10-10s4.486-10 10-10 10 4.486 10 10-4.486 10-10 10z"></path>
  </symbol>
  <symbol xmlns="http://www.w3.org/2000/svg" viewBox="0 0 100 125" id="noun_User_882671">
    <title>Artboard 32</title>
    <path d="M62.4 43.82S66.74 28.14 50 28.14 37.6 43.82 37.6 43.82c-1.57.26.65 7.06.65 7.06C43.87 64.07 50 63.48 50 63.48s6.13.59 11.75-12.61c0 0 2.25-6.79.65-7.05zM22 77.2zm55.95-.01z"></path>
    <path d="M27 68.77a51.63 51.63 0 0 1 13.8-5.89 1.54 1.54 0 0 1 1.27.2c1.43 1 5.29 3.34 7.91 3.34s6.48-2.38 7.91-3.34a1.54 1.54 0 0 1 1.27-.2A51.63 51.63 0 0 1 73 68.77c2.93 1.92 4.32 5.33 5 8.42a39 39 0 1 0-55.89 0c.59-3.09 1.98-6.5 4.89-8.42zM33.36 85l-11.27-7.77a39 39 0 0 0 55.82 0L66.64 85a42.78 42.78 0 0 1-33.28 0z"></path>
    <path d="M73 68.77a51.63 51.63 0 0 0-13.8-5.89 1.54 1.54 0 0 0-1.27.2c-1.43 1-5.29 3.34-7.91 3.34s-6.5-2.42-7.93-3.34a1.54 1.54 0 0 0-1.27-.2A51.63 51.63 0 0 0 27 68.77c-2.93 1.92-4.32 5.33-5 8.42L33.36 85a42.78 42.78 0 0 0 33.28 0l11.27-7.75c-.61-3.15-2-6.56-4.91-8.48z"></path>
  </symbol>
</svg>