<svg xmlns:dc="http://purl.org/dc/elements/1.1/" xmlns:cc="http://creativecommons.org/ns#" xmlns:rdf="http://www.w3.org/1999/02/22-rdf-syntax-ns#" xmlns:svg="http://www.w3.org/2000/svg" xmlns="http://www.w3.org/2000/svg" xmlns:sodipodi="http://sodipodi.sourceforge.net/DTD/sodipodi-0.dtd" xmlns:inkscape="http://www.inkscape.org/namespaces/inkscape" version="1.1" x="0px" y="0px" viewBox="0 0 100 125"><g transform="translate(0,-952.36218)"><path style="text-indent:0;text-transform:none;direction:ltr;block-progression:tb;baseline-shift:baseline;color:#000000;enable-background:accumulate;" d="m 35.812499,962.38034 a 2.0002,2.0002 0 0 0 -0.59375,0.1563 l -27.9999979,12 a 2.0002,2.0002 0 0 0 -1.21875,1.8437 l 0,63.99996 a 2.0002,2.0002 0 0 0 2.78125,1.8125 l 27.2187479,-11.6562 27.21875,11.6562 a 2.0002,2.0002 0 0 0 1.5625,0 l 28,-12 a 2.0002,2.0002 0 0 0 1.21875,-1.8125 l 0,-63.99996 a 2.0002,2.0002 0 0 0 -2.78125,-1.8437 l -27.21875,11.6562 -27.21875,-11.6562 a 2.0002,2.0002 0 0 0 -0.96875,-0.1563 z m -1.8125,5 0,59.68746 -23.999998,10.2812 0,-59.68736 23.999998,-10.2813 z m 4,0 24,10.2813 0,59.68736 -24,-10.2812 0,-59.68746 z m 52,0 0,59.68746 -24,10.2812 0,-59.68736 24,-10.2813 z" fill="#000000" fill-opacity="1" stroke="none" marker="none" visibility="visible" display="inline" overflow="visible"/></g></svg>