<svg xmlns="http://www.w3.org/2000/svg" xmlns:xlink="http://www.w3.org/1999/xlink" viewBox="0 0 100 125" version="1.1" x="0px" y="0px"><title>Bell v2.6</title><desc>Created with Sketch.</desc><g stroke="none" stroke-width="1" fill="none" fill-rule="evenodd"><g fill="#000000"><path d="M45.5,29.0667924 C37.7364775,31.064044 32,38.1087382 32,46.4992494 L32,58.4982567 C32,59.603789 31.1017394,60.5 30.0020869,60.5 C27.7917953,60.5 26,62.2953562 26,64.5 C26,66.709139 27.7940525,68.5 30.0098932,68.5 L69.9901068,68.5 C72.2047097,68.5 74,66.7046438 74,64.5 C74,62.290861 72.1998022,60.5 69.9979131,60.5 C68.8944962,60.5 68,59.6107383 68,58.4982567 L68,46.4992494 C68,38.112059 62.2647191,31.0647228 54.5,29.0668673 L54.5,27.0008537 C54.5,24.5092478 52.4852814,22.5 50,22.5 C47.5197757,22.5 45.5,24.5151008 45.5,27.0008537 L45.5,29.0667924 Z M43,70.5 L57,70.5 C57,74.3659932 53.8659932,77.5 50,77.5 C46.1340068,77.5 43,74.3659932 43,70.5 Z"/></g></g></svg>