<svg xmlns="http://www.w3.org/2000/svg" xmlns:xlink="http://www.w3.org/1999/xlink" version="1.1" x="0px" y="0px" viewBox="0 0 32 40" enable-background="new 0 0 32 32" xml:space="preserve"><path d="M30,32H3c-0.55,0-1-0.45-1-1s0.45-1,1-1h27V8H6v17c0,1.21-0.8,3-3,3s-3-1.79-3-3V2c0-0.97,0.7-2,2-2h6  c0.27,0,0.52,0.11,0.71,0.29L10.41,2H26c0.55,0,1,0.45,1,1s-0.45,1-1,1H10C9.73,4,9.48,3.89,9.29,3.71L7.59,2H2v23  c0.01,0.45,0.19,1,1,1s0.99-0.55,1-1.01V8c0-1.3,1.03-2,2-2h24c1.3,0,2,1.03,2,2v22C32,31.3,30.97,32,30,32z"/></svg>