<svg xmlns:dc="http://purl.org/dc/elements/1.1/" xmlns:cc="http://creativecommons.org/ns#" xmlns:rdf="http://www.w3.org/1999/02/22-rdf-syntax-ns#" xmlns:svg="http://www.w3.org/2000/svg" xmlns="http://www.w3.org/2000/svg" xmlns:sodipodi="http://sodipodi.sourceforge.net/DTD/sodipodi-0.dtd" xmlns:inkscape="http://www.inkscape.org/namespaces/inkscape" version="1.1" x="0px" y="0px" viewBox="0 0 100 125"><g transform="translate(0,-952.36218)"><path style="text-indent:0;text-transform:none;direction:ltr;block-progression:tb;baseline-shift:baseline;color:#000000;enable-background:accumulate;" d="m 20.654685,1004.2687 14.0004,17 c 1.1583,1.2966 3.0156,1.4204 4.2348,0.4222 1.2191,-0.9982 1.42,-3.0157 0.4216,-4.2347 l -9.969,-12.0938 47.65743,0 c 1.6569,0 3.0001,-1.3431 3.0001,-2.9999 0,-1.6569 -1.3432,-3.00003 -3.0001,-3.00003 l -47.65743,0 9.969,-12.0938 c 0.9984,-1.2189 0.7737,-3.2081 -0.4216,-4.2346 -1.2326,-1.0586 -3.2367,-0.7971 -4.2348,0.4221 l -14.0004,17.00003 c -0.9114,1.2815 -0.8336,2.5733 0,3.8125 z" fill="#000000" fill-opacity="1" stroke="none" marker="none" visibility="visible" display="inline" overflow="visible"/></g></svg>