<svg xmlns="http://www.w3.org/2000/svg" xmlns:xlink="http://www.w3.org/1999/xlink" viewBox="0 0 21 26.25" version="1.1" x="0px" y="0px"><title>explore</title><desc>Created with Sketch.</desc><g stroke="none" stroke-width="1" fill="none" fill-rule="evenodd"><g transform="translate(-270.000000, -252.000000)" fill-rule="nonzero" fill="#000000"><path d="M280.5,272 C285.746705,272 290,267.746705 290,262.5 C290,257.253295 285.746705,253 280.5,253 C275.253295,253 271,257.253295 271,262.5 C271,267.746705 275.253295,272 280.5,272 Z M280.5,273 C274.70101,273 270,268.29899 270,262.5 C270,256.70101 274.70101,252 280.5,252 C286.29899,252 291,256.70101 291,262.5 C291,268.29899 286.29899,273 280.5,273 Z M279.450768,261.457784 L283.893925,259.106579 L281.543665,263.545696 L277.104343,265.895785 L279.450768,261.457784 Z M283.974523,257.932546 L278.710728,260.718012 L275.930344,265.976801 C275.43976,266.904685 276.099799,267.55905 277.024291,267.069642 L282.283469,264.285536 L285.068265,259.025678 C285.559633,258.097593 284.899455,257.443095 283.974523,257.932546 Z"/></g></g></svg>