<svg xmlns:dc="http://purl.org/dc/elements/1.1/" xmlns:cc="http://creativecommons.org/ns#" xmlns:rdf="http://www.w3.org/1999/02/22-rdf-syntax-ns#" xmlns:svg="http://www.w3.org/2000/svg" xmlns="http://www.w3.org/2000/svg" xmlns:sodipodi="http://sodipodi.sourceforge.net/DTD/sodipodi-0.dtd" xmlns:inkscape="http://www.inkscape.org/namespaces/inkscape" version="1.1" x="0px" y="0px" viewBox="0 0 100 125"><g transform="translate(0,-952.36218)"><path style="text-indent:0;text-transform:none;direction:ltr;block-progression:tb;baseline-shift:baseline;color:#000000;enable-background:accumulate;" d="m 41.984375,958.36216 c -1.087221,0.0294 -1.73428,0.87143 -1.96875,1.625 l -1.71875,9.46875 c -3.792341,1.35236 -7.256101,3.32249 -10.3125,5.8125 l -8.96875,-3.46875 c -0.857701,-0.32499 -1.92113,0.0341 -2.40625,0.8125 L 8.2656255,986.2684 c -0.48135,0.7905 -0.31486,1.9143 0.375,2.5313 l 7.1562505,6.3437 c -0.48962,2.3273 -0.8125,4.7445 -0.8125,7.2188 0,2.4742 0.32288,4.8602 0.8125,7.1875 l -7.1562505,6.3437 c -0.68986,0.617 -0.85635,1.7408 -0.375,2.5313 l 8.3437495,13.6562 c 0.48512,0.7784 1.548549,1.1375 2.40625,0.8125 l 8.96875,-3.4687 c 3.05378,2.4878 6.52391,4.4602 10.3125,5.8125 l 1.71875,9.4687 c 0.160179,0.9177 1.037219,1.6555 1.96875,1.6563 l 16,0 c 0.931529,-8e-4 1.80857,-0.7386 1.96875,-1.6563 l 1.71875,-9.4375 c 3.79796,-1.3504 7.282809,-3.3214 10.34375,-5.8125 l 8.9375,3.4375 c 0.86517,0.3413 1.950119,-0.02 2.4375,-0.8125 l 8.34375,-13.6562 c 0.48135,-0.7905 0.314859,-1.9143 -0.375,-2.5313 l -7.125,-6.375 c 0.481219,-2.3243 0.75,-4.7036 0.75,-7.1562 0,-2.4527 -0.268781,-4.8633 -0.75,-7.1875 l 7.125,-6.375 c 0.689859,-0.617 0.85635,-1.7408 0.375,-2.5313 l -8.34375,-13.65624 c -0.487381,-0.79211 -1.57233,-1.15376 -2.4375,-0.8125 l -8.9375,3.4375 c -3.060401,-2.49068 -6.54659,-4.43078 -10.34375,-5.78125 l -1.71875,-9.46875 c -0.17311,-0.90646 -1.045911,-1.62687 -1.96875,-1.625 l -16,0 z m 1.65625,4 12.6875,0 1.59375,8.84375 c 0.12666,0.71858 0.678359,1.34551 1.375,1.5625 4.13625,1.30023 7.90048,3.45557 11.09375,6.25 0.547719,0.46947 1.35956,0.60686 2.03125,0.34375 l 8.4375,-3.25 6.59375,10.84374 -6.71875,6 c -0.54354,0.4775 -0.79359,1.2652 -0.625,1.9688 0.58239,2.3698 0.875,4.8679 0.875,7.4375 0,2.5695 -0.29261,5.0364 -0.875,7.4062 -0.16859,0.7036 0.0815,1.4913 0.625,1.9688 l 6.71875,6 -6.59375,10.8437 -8.4375,-3.25 c -0.67169,-0.2631 -1.483531,-0.1257 -2.03125,0.3438 -3.193281,2.7944 -6.95751,4.981 -11.09375,6.2812 -0.68864,0.2121 -1.237981,0.8239 -1.375,1.5313 l -1.625,8.875 -12.625,0 -1.625,-8.875 c -0.13173,-0.7002 -0.666571,-1.3097 -1.34375,-1.5313 -4.13623,-1.3002 -7.90047,-3.4868 -11.09375,-6.2812 -0.55372,-0.4809 -1.38274,-0.6191 -2.0625,-0.3438 l -8.40625,3.25 -6.593749,-10.8125 6.749999,-6 c 0.54354,-0.4775 0.79359,-1.2651 0.625,-1.9687 -0.590621,-2.3915 -0.9375,-4.8666 -0.9375,-7.4375 0,-2.571 0.346869,-5.0772 0.9375,-7.4688 0.168589,-0.7036 -0.0815,-1.4912 -0.625,-1.9687 l -6.749999,-6 6.593749,-10.81254 8.40625,3.25 c 0.67976,0.27533 1.50878,0.13716 2.0625,-0.34375 3.193269,-2.79443 6.957499,-4.94977 11.09375,-6.25 0.68518,-0.22655 1.22231,-0.85113 1.34375,-1.5625 l 1.59375,-8.84375 z m 6.34375,18.00004 c -12.126571,0 -22,9.8733 -22,22 0,12.1265 9.87344,22 22,22 12.12657,0 22,-9.8735 22,-22 0,-12.1267 -9.87342,-22 -22,-22 z m 0,4 c 9.96482,0 18,8.035 18,18 0,9.9647 -8.03517,18 -18,18 -9.964821,0 -18,-8.0353 -18,-18 0,-9.965 8.03519,-18 18,-18 z" fill="#000000" fill-opacity="1" stroke="none" marker="none" visibility="visible" display="inline" overflow="visible"/></g></svg>