<svg xmlns="http://www.w3.org/2000/svg" data-name="Layer 1" viewBox="0 0 100 125" x="0px" y="0px"><defs><style>.cls-1{fill:none;stroke:#000;stroke-miterlimit:10;stroke-width:2px;}</style></defs><title>Artboard 32</title><path d="M62.4,43.82S66.74,28.14,50,28.14,37.6,43.82,37.6,43.82c-1.57.26.65,7.06.65,7.06C43.87,64.07,50,63.48,50,63.48s6.13.59,11.75-12.61C61.75,50.87,64,44.08,62.4,43.82Z"/><path d="M22,77.2l0,0,0,0Z"/><path d="M77.95,77.19l0,0,0,0Z"/><path class="cls-1" d="M27,68.77a51.63,51.63,0,0,1,13.8-5.89,1.54,1.54,0,0,1,1.27.2c1.43,1,5.29,3.34,7.91,3.34s6.48-2.38,7.91-3.34a1.54,1.54,0,0,1,1.27-.2A51.63,51.63,0,0,1,73,68.77c2.93,1.92,4.32,5.33,5,8.42a39,39,0,1,0-55.89,0C22.7,74.1,24.09,70.69,27,68.77Z"/><path class="cls-1" d="M33.36,85,22.09,77.23a39,39,0,0,0,55.82,0L66.64,85A42.78,42.78,0,0,1,33.36,85Z"/><path d="M73,68.77a51.63,51.63,0,0,0-13.8-5.89,1.54,1.54,0,0,0-1.27.2c-1.43,1-5.29,3.34-7.91,3.34S43.52,64,42.09,63.08a1.54,1.54,0,0,0-1.27-.2A51.63,51.63,0,0,0,27,68.77c-2.93,1.92-4.32,5.33-5,8.42l0,0L33.36,85a42.78,42.78,0,0,0,33.28,0l11.27-7.75,0,0C77.3,74.1,75.91,70.69,73,68.77Z"/></svg>