<svg xmlns="http://www.w3.org/2000/svg" xmlns:xlink="http://www.w3.org/1999/xlink" version="1.1" x="0px" y="0px" viewBox="0 0 100 125" style="enable-background:new 0 0 100 100;" xml:space="preserve"><path d="M63.2,20.7H17.3c-2.1,0-3.8-1.7-3.8-3.8v0c0-2.1,1.7-3.8,3.8-3.8h45.9c2.1,0,3.8,1.7,3.8,3.8v0C67,19,65.3,20.7,63.2,20.7z"/><path d="M83,53.7H17.3c-2.1,0-3.8-1.7-3.8-3.8v0c0-2.1,1.7-3.8,3.8-3.8H83c2.1,0,3.8,1.7,3.8,3.8v0C86.8,52,85.1,53.7,83,53.7z"/><path d="M63.2,86.7H17.3c-2.1,0-3.8-1.7-3.8-3.8v0c0-2.1,1.7-3.8,3.8-3.8h45.9c2.1,0,3.8,1.7,3.8,3.8v0C67,85,65.3,86.7,63.2,86.7z"/></svg>