<svg xmlns="http://www.w3.org/2000/svg" xmlns:xlink="http://www.w3.org/1999/xlink" version="1.1" x="0px" y="0px" viewBox="0 0 100 125" style="enable-background:new 0 0 100 100;" xml:space="preserve"><g><path d="M36,20.1c-4,0-7.4,2.7-8.5,6.4h-9.1C17,26.5,16,27.6,16,29s1.1,2.5,2.5,2.5h9.1c1,3.7,4.5,6.4,8.5,6.4   c4.1,0,7.5-2.7,8.6-6.4l36.9,0c1.4,0,2.5-1.1,2.5-2.5s-1.1-2.5-2.5-2.5l-36.9,0C43.5,22.8,40.1,20.1,36,20.1z M36.1,25.1   c2.1,0,3.9,1.7,3.9,3.9s-1.8,3.9-3.9,3.9s-3.9-1.7-3.9-3.9S34,25.1,36.1,25.1z"/></g><g><path d="M66.1,40.1c-4,0-7.4,2.7-8.5,6.4H18.5C17,46.5,16,47.6,16,49s1.1,2.5,2.5,2.5h39.1c1,3.7,4.5,6.4,8.5,6.4   c4.1,0,7.5-2.7,8.6-6.4h6.9c1.4,0,2.5-1.1,2.5-2.5c0-1.4-1.1-2.5-2.5-2.5h-6.9C73.6,42.8,70.2,40.1,66.1,40.1z M66.2,45.1   c2.1,0,3.9,1.7,3.9,3.9c0,2.2-1.8,3.9-3.9,3.9c-2.1,0-3.9-1.7-3.9-3.9S64,45.1,66.2,45.1z"/></g><g><path d="M48,62.1c-4,0-7.4,2.7-8.5,6.4H18.5C17,68.5,16,69.6,16,71s1.1,2.5,2.5,2.5h21.1c1,3.7,4.5,6.4,8.5,6.4   c4.1,0,7.5-2.7,8.6-6.4h24.9c1.4,0,2.5-1.1,2.5-2.5s-1.1-2.5-2.5-2.5H56.6C55.5,64.8,52.1,62.1,48,62.1z M48.1,67.1   c2.1,0,3.9,1.7,3.9,3.9c0,2.2-1.8,3.9-3.9,3.9s-3.9-1.7-3.9-3.9C44.3,68.8,46,67.1,48.1,67.1z"/></g></svg>