<svg xmlns="http://www.w3.org/2000/svg" xmlns:xlink="http://www.w3.org/1999/xlink" version="1.2" baseProfile="tiny" x="0px" y="0px" viewBox="0 0 100 125" xml:space="preserve"><g><path d="M70,25H30C16.215,25,5,36.215,5,50s11.215,25,25,25h40c13.785,0,25-11.215,25-25S83.785,25,70,25z M70,70H30   c-11.028,0-20-8.972-20-20s8.972-20,20-20h40c11.028,0,20,8.972,20,20S81.028,70,70,70z"/><path d="M30,35c-8.271,0-15,6.729-15,15s6.729,15,15,15s15-6.729,15-15S38.271,35,30,35z M30,60c-5.514,0-10-4.486-10-10   s4.486-10,10-10s10,4.486,10,10S35.514,60,30,60z"/></g></svg>